<?xml version="1.0" standalone="no"?>
<!DOCTYPE svg PUBLIC "-//W3C//DTD SVG 20010904//EN"
 "http://www.w3.org/TR/2001/REC-SVG-20010904/DTD/svg10.dtd">
<svg version="1.0" xmlns="http://www.w3.org/2000/svg"
 width="256.000000pt" height="256.000000pt" viewBox="0 0 256.000000 256.000000"
 preserveAspectRatio="xMidYMid meet">

<g transform="translate(0.000000,256.000000) scale(0.100000,-0.100000)"
fill="#000000" stroke="none">
<path d="M1016 2458 c-13 -24 -32 -66 -42 -95 l-18 -51 -44 39 c-73 63 -93 51
-107 -63 l-7 -56 -91 -49 c-116 -61 -219 -158 -238 -222 l-13 -44 46 -42 c67
-61 103 -75 190 -75 41 0 77 -2 80 -5 3 -3 -1 -34 -8 -68 -7 -34 -13 -76 -14
-94 0 -17 -5 -35 -11 -38 -6 -4 -62 -6 -125 -6 -63 1 -132 -3 -154 -9 -43 -12
-80 -51 -80 -85 0 -20 6 -23 68 -27 124 -10 239 -86 299 -199 26 -50 28 -62
28 -169 0 -111 -1 -117 -33 -175 -87 -161 -94 -181 -94 -265 0 -89 16 -132 81
-228 22 -33 43 -70 46 -84 6 -23 2 -26 -62 -43 -74 -20 -123 -58 -123 -95 0
-20 3 -22 38 -14 20 5 85 9 144 9 123 0 149 -11 105 -46 -15 -11 -35 -35 -43
-51 -15 -29 -15 -31 2 -24 11 4 33 10 49 12 25 4 27 3 13 -6 -10 -6 -18 -15
-18 -20 0 -15 93 -12 132 4 19 8 95 29 170 46 155 35 238 65 318 114 39 24 99
45 212 74 167 43 292 92 374 147 169 112 281 313 291 525 9 169 -28 269 -180
492 -98 145 -127 213 -127 302 0 72 22 115 80 154 31 21 44 23 110 20 95 -4
166 -36 237 -105 l51 -50 6 36 c10 59 6 132 -9 206 -44 209 -202 366 -413 410
-85 18 -129 18 -217 0 -224 -47 -394 -212 -480 -465 l-24 -70 29 -68 c16 -37
76 -158 134 -268 115 -218 167 -336 197 -453 27 -102 35 -294 17 -386 l-14
-70 0 120 c-1 252 -79 439 -336 800 -66 94 -127 184 -134 202 -9 21 -14 70
-14 135 0 93 -3 109 -29 165 -16 34 -43 71 -60 84 -33 24 -41 45 -76 199 -32
139 -64 165 -109 88z m-222 -344 c19 -7 20 -42 3 -65 -39 -51 -127 -51 -127 0
0 11 5 9 16 -7 19 -27 45 -28 68 -3 39 43 -12 82 -57 44 -21 -17 -21 -17 -7 1
23 30 70 43 104 30z m973 -1476 c-3 -8 -6 -5 -6 6 -1 11 2 17 5 13 3 -3 4 -12
1 -19z"/>
<path d="M61 1858 c-23 -62 -21 -72 12 -96 78 -55 76 -46 20 -100 -69 -66 -87
-103 -87 -177 0 -74 31 -141 70 -151 41 -10 124 2 189 28 l60 24 2 66 c1 68
11 97 46 136 25 27 104 52 164 52 36 0 43 3 43 20 0 31 -74 105 -119 120 -55
18 -153 8 -221 -22 l-56 -25 -54 74 c-30 40 -55 73 -57 73 -2 0 -7 -10 -12
-22z"/>
<path d="M384 1382 c-65 -40 -180 -82 -227 -82 -15 0 -27 -3 -27 -8 0 -4 24
-48 53 -97 48 -82 58 -93 110 -119 45 -23 76 -30 154 -36 140 -10 140 -10 196
100 26 52 47 104 47 117 0 48 -127 143 -211 157 -28 5 -45 -1 -95 -32z"/>
</g>
</svg>
