<svg width="256" height="256" viewBox="0 0 256 256" fill="none" xmlns="http://www.w3.org/2000/svg">
<g clip-path="url(#clip0_17_3)">
<path d="M101.257 16.4754C99.9536 18.993 98.0488 23.3988 97.0463 26.4408L95.2417 31.7907L90.8305 27.6996C83.5119 21.091 81.5068 22.3498 80.1033 34.3083L79.4015 40.1826L70.2783 45.3227C58.6488 51.7216 48.3226 61.8968 46.4178 68.6103L45.1145 73.2259L49.7262 77.6317C56.4432 84.0305 60.0524 85.4991 68.7745 85.4991C72.8849 85.4991 76.4941 85.7089 76.7949 86.0236C77.0956 86.3383 76.6946 89.5902 75.9928 93.1568C75.291 96.7233 74.6895 101.129 74.5893 103.017C74.5893 104.801 74.088 106.689 73.4865 107.003C72.8849 107.423 67.2707 107.633 60.9547 107.633C54.6386 107.528 47.7211 107.948 45.5155 108.577C41.2045 109.836 37.4951 113.927 37.4951 117.493C37.4951 119.591 38.0966 119.906 44.3124 120.326C56.744 121.375 68.2732 129.347 74.2885 141.201C76.8951 146.446 77.0956 147.704 77.0956 158.929C77.0956 170.572 76.9954 171.202 73.7872 177.286C65.0651 194.175 64.3633 196.273 64.3633 205.084C64.3633 214.42 65.9674 218.931 72.4839 229.001C74.6895 232.463 76.7949 236.344 77.0956 237.813C77.6972 240.226 77.2961 240.54 70.8799 242.324C63.461 244.422 58.5486 248.408 58.5486 252.289C58.5486 254.387 58.8493 254.597 62.3582 253.758C64.3633 253.233 70.8799 252.813 76.7949 252.813C89.1262 252.813 91.7328 253.967 87.3216 257.639C85.8178 258.793 83.8127 261.31 83.0106 262.989C81.5068 266.031 81.5068 266.241 83.2112 265.506C84.3139 265.087 86.5196 264.457 88.1236 264.248C90.63 263.828 90.8305 263.933 89.4269 264.877C88.4244 265.506 87.6223 266.45 87.6223 266.975C87.6223 268.548 96.946 268.234 100.856 266.555C102.761 265.716 110.38 263.513 117.899 261.73C133.439 258.058 141.76 254.911 149.78 249.771C153.69 247.254 159.705 245.051 171.034 242.009C187.777 237.498 200.308 232.358 208.529 226.589C225.472 214.84 236.701 193.755 237.703 171.517C238.606 153.789 234.896 143.299 219.657 119.906C209.833 104.696 206.925 97.5625 206.925 88.2265C206.925 80.6738 209.131 76.1631 214.946 72.072C218.053 69.8691 219.357 69.6593 225.974 69.974C235.498 70.3936 242.616 73.7504 249.734 80.9884L254.847 86.2334L255.448 82.457C256.451 76.268 256.05 68.6103 254.546 60.8478C250.135 38.9238 234.295 22.4547 213.141 17.8391C204.619 15.9509 200.208 15.9509 191.386 17.8391C168.929 22.7694 151.885 40.0777 143.264 66.6172L140.857 73.9602L143.765 81.0934C145.369 84.9746 151.384 97.6674 157.199 109.206C168.728 132.074 173.941 144.453 176.949 156.726C179.656 167.425 180.458 187.566 178.653 197.217L177.25 204.56V191.972C177.15 165.537 169.33 145.921 143.564 108.052C136.948 98.1919 130.832 88.751 130.13 86.8628C129.228 84.6599 128.727 79.5199 128.727 72.7014C128.727 62.9458 128.426 61.2674 125.819 55.393C124.215 51.8264 121.508 47.9452 119.804 46.5815C116.496 44.0639 115.694 41.861 112.185 25.7065C108.977 11.1255 105.768 8.39816 101.257 16.4754ZM79.0005 52.5608C80.9053 53.2951 81.0056 56.9665 79.3012 59.3792C75.3913 64.7291 66.5689 64.7291 66.5689 59.3792C66.5689 58.2253 67.0702 58.4351 68.173 60.1135C70.0778 62.9458 72.6844 63.0507 74.9903 60.4282C78.9002 55.9175 73.7872 51.8264 69.2758 55.8126C67.1704 57.5959 67.1704 57.5959 68.574 55.7077C70.8799 52.5607 75.5918 51.1971 79.0005 52.5608ZM176.548 207.392C176.247 208.231 175.947 207.917 175.947 206.763C175.846 205.609 176.147 204.979 176.448 205.399C176.749 205.714 176.849 206.658 176.548 207.392Z" fill="#F9F9F9"/>
<path d="M5.514 79.415C3.20814 85.9188 3.40865 86.9678 6.71705 89.4853C14.5369 95.2548 14.3364 94.3107 8.72214 99.9753C1.80458 106.899 0 110.78 0 118.542C0 126.305 3.10789 133.333 7.01781 134.382C11.1282 135.431 19.4494 134.172 25.9659 131.445L31.9812 128.927L32.1817 122.004C32.2819 114.871 33.2845 111.829 36.7934 107.738C39.2997 104.906 47.2199 102.283 53.2351 102.283C56.8443 102.283 57.5461 101.968 57.5461 100.185C57.5461 96.9332 50.1272 89.1706 45.6158 87.5971C40.1018 85.709 30.2768 86.758 23.4595 89.9049L17.8453 92.5274L12.4316 84.7649C9.42392 80.5689 6.91756 77.1072 6.71705 77.1072C6.51654 77.1072 6.01527 78.1562 5.514 79.415Z" fill="#F9F9F9"/>
<path d="M37.896 129.347C31.3795 133.543 19.8502 137.949 15.1383 137.949C13.6345 137.949 12.4314 138.263 12.4314 138.788C12.4314 139.207 14.8375 143.823 17.7449 148.963C22.5571 157.565 23.5596 158.719 28.7729 161.446C33.2843 163.859 36.3922 164.593 44.2121 165.222C58.2477 166.271 58.2477 166.271 63.8619 154.733C66.4686 149.278 68.5739 143.823 68.5739 142.459C68.5739 137.424 55.8416 127.459 47.4202 125.99C44.6131 125.466 42.9088 126.095 37.896 129.347Z" fill="#F9F9F9"/>
</g>
<defs>
<clipPath id="clip0_17_3">
<rect width="256" height="256" fill="white"/>
</clipPath>
</defs>
</svg>
